# xmcd CD database file
#
# Track frame offsets:
#	150
#	10760
#	25200
#	36647
#	51485
#	63652
#	80297
#	90332
#	99927
#	113765
#	128457
#	141647
#	155085
#	167680
#
# Disc length: 2386 seconds
#
# Revision: 0
# Processed by: cddbd v1.4PL0 Copyright (c) Steve Scherf et al.
# Submitted via: Feurio! 1.65 - http://www.feurio.com
#
DISCID=b609500e
DTITLE=Ralf Paulsen - Ich Bin Ein Tramp-1992
DYEAR=1992
DGENRE=Country
TTITLE0=Geisterreiter
TTITLE1=Du Hast Deine Träume
TTITLE2=Es Hängt Ein Pferdehalfter An Der Wand
TTITLE3=Ich Möcht' So Gern Nach Nashville,Tennessee
TTITLE4=Ich Bin Ein Tramp
TTITLE5=Mein Guter Alter Freund
TTITLE6=Ich Bin Ein Mann der Straße
TTITLE7=Bonanza
TTITLE8=Hallo Partner Im Verkehr
TTITLE9=Ein Herz Für Cowboys
TTITLE10=Das Alte Haus Von Rocky Docky
TTITLE11=In Berlin Da Hab Ich Früher Mal gewohnt
TTITLE12=Ich Fahr 'nen Supertruck
TTITLE13=Goodbye Highways
EXTD=AAD-Koch-1992
EXTT0=
EXTT1=
EXTT2=
EXTT3=
EXTT4=
EXTT5=
EXTT6=
EXTT7=
EXTT8=
EXTT9=
EXTT10=
EXTT11=
EXTT12=
EXTT13=
PLAYORDER=
